Coordinates
version=1
nRows=10
nColumns=34
inDegrees=yes

Units are S.I. units (second, meters, Newtons, ...)
If the header above contains a line with 'inDegrees', this indicates whether rotational values are in degrees (yes) or radians (no).

endheader
time	pelvis_tilt	pelvis_list	pelvis_rotation	pelvis_tx	pelvis_ty	pelvis_tz	hip_flexion_r	hip_adduction_r	hip_rotation_r	knee_angle_r	ankle_angle_r	subtalar_angle_r	mtp_angle_r	hip_flexion_l	hip_adduction_l	hip_rotation_l	knee_angle_l	ankle_angle_l	subtalar_angle_l	mtp_angle_l	lumbar_extension	lumbar_bending	lumbar_rotation	arm_flex_r	arm_add_r	arm_rot_r	elbow_flex_r	pro_sup_r	arm_flex_l	arm_add_l	arm_rot_l	elbow_flex_l	pro_sup_l
      2.45000000	    -78.54501848	      9.90810262	    -32.26659528	      1.42248625	      0.80791027	     -0.25072350	    100.79230876	     30.00000025	     -5.57481811	      0.00000000	    -23.91380372	    -35.00000000	      0.00000000	    115.04477386	    -21.46820515	     24.23465389	     90.24038214	     50.00000000	     -2.23238177	      0.00000000	     90.00000018	     30.91485042	    -14.15174627	    -19.39222286	     -6.56665460	      6.56127270	     18.09775150	    111.81405052	     -8.23132890	      4.41368886	     21.49143505	     10.97190327	    113.04294076
      2.46666670	    -78.74705190	      9.09839617	    -31.95629910	      1.43356201	      0.80882104	     -0.24496996	     99.99268091	     30.00000025	     -5.27990824	      0.00000000	    -23.99360772	    -35.00000000	      0.00000000	    114.07847104	    -21.11946502	     24.94840132	     89.87808579	     50.00000000	     -3.56465270	      0.00000000	     90.00000018	     30.86019885	    -13.87997023	    -20.97973674	     -6.51848441	      3.35628665	     21.68313096	    110.66534570	     -7.85710294	      4.76621146	     26.07975974	      8.37888106	    108.87467171
      2.48333330	    -78.88270811	      8.54268818	    -31.58742824	      1.44483313	      0.80974054	     -0.23903847	     99.10477919	     30.00000025	     -4.54737665	      0.00000000	    -23.72168061	    -35.00000000	      0.00000000	    113.22504081	    -20.80020790	     25.31471135	     89.47103162	     50.00000000	     -5.43030188	      0.00000000	     90.00000018	     30.68740531	    -14.04302087	    -21.04609224	     -6.66284712	      3.06593785	     21.38332293	    110.67927881	     -8.54960396	      4.66449667	     26.64606876	      8.55542750	    108.48498556
      2.50000000	    -49.65073812	     17.81454020	    -26.62165020	      1.45030418	      0.78717670	     -0.25209019	    100.39959394	     15.18652400	     -4.45519437	     57.27754560	      8.63340929	    -20.64675616	      0.00000000	     86.81582430	     -7.78535773	      2.39490406	     95.38270891	     50.00000000	    -15.80544364	      0.00000000	     47.46881965	      9.15243150	      3.42232848	     -4.50095970	     -1.19399165	      3.36702005	     16.34315044	    113.55977327	      1.22958382	     -1.41310818	     35.47391328	      9.52799007	     95.42212646
      2.51666670	    -50.07239865	     17.31868848	    -26.60002466	      1.46138551	      0.78617319	     -0.24421745	    100.17735817	     15.91957961	     -4.29706225	     58.10617261	      9.70319877	    -20.78217667	      0.00000000	     86.97870594	     -8.01857234	      3.09672801	     95.40411640	     50.00000000	    -18.48312009	      0.00000000	     48.03324799	      9.79106222	      3.98370557	     -5.26301896	     -1.51238942	      3.84927421	     16.83025793	    113.66388024	      0.81852434	     -1.14245546	     35.32583430	      8.92599636	     94.80942873
      2.53333330	    -51.66425155	     16.02578081	    -26.96209363	      1.47185832	      0.78838450	     -0.23639409	    100.20150965	     17.34437120	     -5.09552100	     57.50863554	     10.03079102	    -21.55255076	      0.00000000	     88.36025078	     -9.44472696	      4.85264865	     95.48459826	     50.00000000	    -19.85440526	      0.00000000	     50.16791421	     12.13615630	      3.40222822	     -6.34972544	     -2.22313935	      4.51585821	     17.18703934	    113.52606163	     -0.12482238	     -0.30991827	     36.00132302	      7.52987974	     92.44853215
      2.55000000	    -51.86361710	     13.97376492	    -28.42281230	      1.48222669	      0.79235203	     -0.22898766	     98.79483901	     19.28483097	     -6.34285298	     56.85678060	      9.48021723	    -23.33338693	      0.00000000	     88.59448346	    -11.43743534	      7.14833996	     96.75975800	     50.00000000	    -20.46876936	      0.00000000	     49.79246698	     15.29685673	      2.93686729	     -6.43480125	     -2.97450177	      4.50259882	     16.74833250	    113.09487973	     -0.61426922	      0.51015813	     37.53844743	      6.82848986	     90.67270592
      2.56666670	    -50.79546492	     11.20002391	    -30.47804353	      1.49263460	      0.79595686	     -0.22227439	     96.03538595	     21.48950855	     -7.75834975	     56.33256780	      8.29520168	    -25.72163094	      0.00000000	     87.68974986	    -13.71789370	      9.74488202	     98.85643699	     50.00000000	    -20.95110873	      0.00000000	     46.97549883	     18.72759905	      2.70601735	     -6.05330051	     -4.11525142	      4.47090227	     17.33137564	    112.42321614	     -0.41645255	      1.57274630	     40.07689760	      5.91677549	     88.35060854
      2.58333330	    -48.17443816	      8.62939600	    -32.65623590	      1.50411731	      0.79976555	     -0.21885244	     92.12651632	     23.01401041	     -9.10908228	     56.95782106	      8.91608098	    -25.62505361	      0.00000000	     85.23668809	    -14.88372106	     12.44911150	    102.27597362	     44.51622215	    -26.63634829	      0.00000000	     41.78507799	     21.41010885	      3.47703351	     -4.90419372	     -5.17484433	      4.43604526	     17.85877609	    112.01180130	      0.24018312	      2.51403955	     41.93935522	      5.50375509	     86.57180818
      2.60000000	    -32.83244559	     -6.37216043	    -37.45388285	      1.51501825	      0.83064361	     -0.22052440	     70.48936390	     29.13347705	    -10.84582864	     56.44150040	      7.95674506	    -28.67133994	      0.00000000	     65.50514606	    -22.09599920	     15.78786359	    106.70579464	     47.00046690	    -18.39666914	      0.00000000	      1.01582397	     26.64477674	     10.80158421	      6.73830927	     -8.25113933	      5.98532227	     24.19191436	    112.23136423	     11.13344568	      4.56026969	     53.83578339	      4.73368717	     62.37676857
